<?xml version="1.0" encoding="UTF-8"?> <svg xmlns="http://www.w3.org/2000/svg" xmlns:xlink="http://www.w3.org/1999/xlink" clip-rule="evenodd" fill-rule="evenodd" stroke-linejoin="round" stroke-miterlimit="2" viewBox="0 0 800 480"><clipPath id="a"><path clip-rule="evenodd" d="m0 0h800v480h-800z"></path></clipPath><path d="m0 0h800v480h-800z" fill="#006097"></path><g clip-path="url(#a)"><g fill="#fff" opacity=".28"><path d="m634.163 179.59c5.191-3.517 12.26-2.158 15.777 3.033s2.157 12.26-3.033 15.777c-5.191 3.516-12.26 2.157-15.777-3.034-3.517-5.19-2.157-12.26 3.033-15.776z"></path><path d="m686.045 153.32-47.626 32.266 4.497 6.639 47.627-32.266z"></path><path d="m225.322 358.098c5.191-3.517 12.26-2.158 15.777 3.033 3.516 5.191 2.157 12.26-3.033 15.777-5.191 3.516-12.26 2.157-15.777-3.034-3.517-5.19-2.158-12.26 3.033-15.776z"></path><path d="m679.216 50.595c5.191-3.517 12.26-2.158 15.777 3.033 3.516 5.191 2.157 12.26-3.033 15.777-5.191 3.516-12.26 2.157-15.777-3.034-3.517-5.19-2.157-12.26 3.033-15.776z"></path><path d="m731.098 24.325-47.627 32.266 4.498 6.639 47.627-32.266z"></path><path d="m-4.077 415.038c5.191-3.517 12.26-2.157 15.777 3.033 3.516 5.191 2.157 12.26-3.034 15.777-5.19 3.517-12.26 2.157-15.776-3.033-3.517-5.191-2.158-12.26 3.033-15.777z"></path><path d="m90.908 359.566-90.778 61.501 4.497 6.639 90.779-61.501z"></path><path d="m88.866 352.071c5.191-3.516 12.26-2.157 15.777 3.033 3.516 5.191 2.157 12.26-3.034 15.777-5.19 3.517-12.26 2.157-15.776-3.033-3.517-5.191-2.158-12.26 3.033-15.777z"></path><path d="m186.073 393.567 43.504-29.473 4.498 6.639-47.035 31.865-93.213-37.458 2.99-7.441z"></path><path d="m638.419 185.586 4.497 6.639-228.054 154.501-91.234-36.663-39.229 26.649-.064-9.715 38.317-25.955 91.243 36.654z"></path><path d="m369.156 269.532 314.315-212.941 4.498 6.639-317.75 215.268-2.074-.73-93.213-37.459 2.99-7.44z"></path><path d="m93.073 358.1 181.557-123.001 4.498 6.639-181.558 123.001z"></path><path d="m273.148 334.576-.278-96.146 8.019-.023.25 100.06-47.064 32.266-4.498-6.639z"></path><path d="m726.468-68.346.284 98.277 8.019-.023-.284-98.277z"></path><path d="m682.234 59.61.29 100.349 8.019-.024-.29-100.348z"></path><path d="m270.375 229.103c5.191-3.517 12.26-2.158 15.777 3.033 3.516 5.191 2.157 12.26-3.034 15.777-5.19 3.516-12.26 2.157-15.776-3.034-3.517-5.19-2.158-12.26 3.033-15.776z"></path><path d="m637.746-10.904 4.497 6.639-181.557 123.001-.242-.356.242.356-181.558 123.002-4.498-6.639z"></path><path d="m322.529 399.594 46.92-31.896 91.279 36.742 41.859-28.359 4.498 6.639-45.414 30.767-.024-.036-91.187-36.644-46.964 31.818-93.213-37.459 2.99-7.44z"></path><path d="m498.332 370.085c5.19-3.516 12.26-2.157 15.776 3.034 3.517 5.191 2.158 12.26-3.033 15.776-5.191 3.517-12.26 2.158-15.777-3.033-3.516-5.191-2.157-12.26 3.034-15.777z"></path><path d="m593.366 314.581-90.779 61.5 4.498 6.639 90.778-61.5z"></path><path d="m589.111 308.585c5.19-3.517 12.26-2.158 15.776 3.033 3.517 5.191 2.158 12.26-3.033 15.777-5.191 3.516-12.26 2.157-15.777-3.034-3.516-5.19-2.157-12.26 3.034-15.776z"></path><path d="m636.575 285.308-.28-96.669 8.019-.023.297 100.875-46.748 31.729-4.497-6.639z"></path></g><g fill="#fff" opacity=".35"><path d="m105.322 94.098c5.191-3.517 12.26-2.158 15.777 3.033 3.516 5.191 2.157 12.26-3.033 15.777-5.191 3.516-12.26 2.157-15.777-3.034-3.517-5.19-2.158-12.26 3.033-15.776z"></path><path d="m66.073 129.567 43.504-29.473 4.498 6.639-47.035 31.865-93.213-37.458 2.99-7.441z"></path><path d="m518.419-78.414 4.497 6.639-228.054 154.501-91.234-36.663-39.229 26.649-.064-9.715 38.317-25.955 91.243 36.654z"></path><path d="m249.156 5.532 314.315-212.941 4.498 6.639-317.75 215.268-2.074-.73-93.213-37.459 2.99-7.44 91.234 36.663z"></path><path d="m-26.927 94.1 181.557-123.001 4.498 6.639-181.558 123.001z"></path><path d="m153.148 70.576-.278-96.146 8.019-.023.25 100.06-47.064 32.266-4.498-6.639z"></path><path d="m202.529 135.594 46.92-31.896 91.279 36.742 41.859-28.359 4.498 6.639-45.414 30.767-.024-.036-91.187-36.644-46.964 31.818-93.213-37.459 2.99-7.44z"></path><path d="m378.332 106.085c5.19-3.516 12.26-2.157 15.776 3.034 3.517 5.191 2.158 12.26-3.033 15.776-5.191 3.517-12.26 2.158-15.777-3.033-3.516-5.191-2.157-12.26 3.034-15.777z"></path><path d="m473.366 50.581-90.779 61.5 4.498 6.639 90.778-61.5z"></path><path d="m469.111 44.585c5.19-3.517 12.26-2.158 15.776 3.033 3.517 5.191 2.158 12.26-3.033 15.777-5.191 3.516-12.26 2.157-15.777-3.034-3.516-5.19-2.157-12.26 3.034-15.776z"></path><path d="m516.575 21.308-.28-96.669 8.019-.023.297 100.875-46.748 31.729-4.497-6.639z"></path></g><g fill="#fff" opacity=".17"><path d="m311.163 6.59c5.191-3.517 12.26-2.158 15.777 3.033s2.157 12.26-3.033 15.777c-5.191 3.516-12.26 2.157-15.777-3.034-3.517-5.19-2.157-12.26 3.033-15.776z"></path><path d="m363.045-19.68-47.626 32.266 4.497 6.639 47.627-32.266z"></path><path d="m315.419 12.586 4.497 6.639-228.054 154.501-91.234-36.663-39.229 26.649-.064-9.715 38.317-25.955 91.243 36.654 224.524-152.11z"></path><path d="m46.156 96.532 314.315-212.941 4.498 6.639-317.75 215.268-2.074-.73-93.213-37.459 2.99-7.44z"></path><path d="m314.746-183.904 4.497 6.639-181.557 123.001-.242-.356.242.356-181.558 123.002-4.498-6.639z"></path><path d="m-.471 226.594 46.92-31.896 91.279 36.742 41.859-28.359 4.498 6.639-45.414 30.767-.024-.036-91.187-36.644-46.964 31.818-93.213-37.459 2.99-7.44 89.256 35.868z"></path><path d="m175.332 197.085c5.19-3.516 12.26-2.157 15.776 3.034 3.517 5.191 2.158 12.26-3.033 15.776-5.191 3.517-12.26 2.158-15.777-3.033-3.516-5.191-2.157-12.26 3.034-15.777z"></path><path d="m270.366 141.581-90.779 61.5 4.498 6.639 90.778-61.5z"></path><path d="m266.111 135.585c5.19-3.517 12.26-2.158 15.776 3.033 3.517 5.191 2.158 12.26-3.033 15.777-5.191 3.516-12.26 2.157-15.777-3.034-3.516-5.19-2.157-12.26 3.034-15.776z"></path><path d="m313.575 112.308-.28-96.669 8.019-.023.297 100.875-46.748 31.729-4.497-6.639z"></path></g><g fill="#fff" opacity=".14"><path d="m721.163 367.59c5.191-3.517 12.26-2.158 15.777 3.033s2.157 12.26-3.033 15.777c-5.191 3.516-12.26 2.157-15.777-3.034-3.517-5.19-2.157-12.26 3.033-15.776z"></path><path d="m773.045 341.32-47.626 32.266 4.497 6.639 47.627-32.266z"></path><path d="m766.216 238.595c5.191-3.517 12.26-2.158 15.777 3.033 3.516 5.191 2.157 12.26-3.033 15.777-5.191 3.516-12.26 2.157-15.777-3.034-3.517-5.19-2.157-12.26 3.033-15.776z"></path><path d="m818.098 212.325-47.627 32.266 4.498 6.639 47.627-32.266z"></path><path d="m725.419 373.586 4.497 6.639-228.054 154.501-91.234-36.663-39.229 26.649-.064-9.715 38.317-25.955 91.243 36.654z"></path><path d="m456.156 457.532 314.315-212.941 4.498 6.639-317.75 215.268-2.074-.73-93.213-37.459 2.99-7.44z"></path><path d="m180.073 546.1 181.557-123.001 4.498 6.639-181.558 123.001z"></path><path d="m360.148 522.576-.278-96.146 8.019-.023.25 100.06-47.064 32.266-4.498-6.639z"></path><path d="m768.398 247.61.284 98.277 8.019-.023-.284-98.277z"></path><path d="m357.375 417.103c5.191-3.517 12.26-2.158 15.777 3.033 3.516 5.191 2.157 12.26-3.034 15.777-5.19 3.516-12.26 2.157-15.776-3.034-3.517-5.19-2.158-12.26 3.033-15.776z"></path><path d="m724.746 177.096 4.497 6.639-181.557 123.001-.242-.356.242.356-181.558 123.002-4.498-6.639z"></path><path d="m815.524 115.596-90.778 61.5 4.497 6.639 90.779-61.5z"></path><path d="m723.575 473.308-.28-96.669 8.019-.023.297 100.875-46.748 31.729-4.497-6.639z"></path></g><path d="m613.022 211.55c0-2.026-.805-3.97-2.238-5.404-1.434-1.433-3.378-2.238-5.405-2.238-53.172 0-367.356 0-420.528 0-2.027 0-3.971.805-5.404 2.238-1.433 1.434-2.238 3.378-2.238 5.404v55.807c0 2.027.805 3.971 2.238 5.405 1.433 1.433 3.377 2.238 5.404 2.238h420.528c2.027 0 3.971-.805 5.405-2.238 1.433-1.434 2.238-3.378 2.238-5.405 0-13.667 0-42.14 0-55.807z" fill="#1c1c1c" fill-opacity=".75"></path><g fill="#fff"><path d="m225.783 247.266c0 .608.324 1.104.972 1.488s1.596.576 2.844.576c.672 0 1.28-.068 1.824-.204s1.008-.316 1.392-.54.676-.48.876-.768.3-.584.3-.888c0-.56-.22-.936-.66-1.128s-1.108-.288-2.004-.288h-2.28c-.336 0-.652-.012-.948-.036s-.572-.076-.828-.156c-.56.304-.948.62-1.164.948s-.324.66-.324.996zm-1.704.192c0-.464.164-.92.492-1.368s.804-.856 1.428-1.224v-.096c-.32-.176-.6-.416-.84-.72s-.36-.704-.36-1.2c0-.368.12-.748.36-1.14s.584-.74 1.032-1.044v-.096c-.4-.304-.74-.708-1.02-1.212s-.42-1.108-.42-1.812c0-.64.124-1.216.372-1.728s.58-.948.996-1.308.9-.64 1.452-.84 1.14-.3 1.764-.3c.64 0 1.216.096 1.728.288h4.824v1.512h-3.12c.272.288.52.64.744 1.056s.336.88.336 1.392c0 .624-.116 1.184-.348 1.68s-.552.916-.96 1.26-.888.608-1.44.792-1.14.276-1.764.276c-.304 0-.628-.036-.972-.108s-.676-.18-.996-.324c-.608.384-.912.832-.912 1.344 0 .464.212.804.636 1.02s1.02.324 1.788.324h2.616c1.504 0 2.62.208 3.348.624s1.092 1.12 1.092 2.112c0 .544-.152 1.064-.456 1.56s-.736.928-1.296 1.296-1.24.664-2.04.888-1.696.336-2.688.336c-1.712 0-3.036-.28-3.972-.84s-1.404-1.36-1.404-2.4zm5.256-7.152c.752 0 1.388-.248 1.908-.744s.78-1.168.78-2.016c0-.4-.072-.768-.216-1.104s-.336-.624-.576-.864-.524-.428-.852-.564-.676-.204-1.044-.204-.716.068-1.044.204-.612.324-.852.564-.432.528-.576.864-.216.704-.216 1.104c0 .848.264 1.52.792 2.016s1.16.744 1.896.744z" fill-rule="nonzero"></path><path d="m238.911 233.658h7.392v11.664h-1.968v-10.056h-5.424zm6.192-2.4c-.464 0-.844-.136-1.14-.408s-.444-.64-.444-1.104.148-.836.444-1.116.676-.42 1.14-.42c.448 0 .824.14 1.128.42s.456.652.456 1.116-.152.832-.456 1.104-.68.408-1.128.408z" fill-rule="nonzero"></path><path d="m256.095 235.266h-3.288v-1.488l3.36-.12.264-3.264h1.632v3.264h5.736v1.608h-5.736v5.544c0 .528.048.988.144 1.38s.256.724.48.996.528.476.912.612.856.204 1.416.204 1.064-.048 1.512-.144.88-.224 1.296-.384l.432 1.44c-.528.192-1.112.356-1.752.492s-1.28.204-1.92.204c-.848 0-1.56-.116-2.136-.348s-1.036-.56-1.38-.984-.592-.932-.744-1.524-.228-1.248-.228-1.968z" fill-rule="nonzero"></path><path d="m281.895 228.234h5.952v13.32c0 .864.204 1.484.612 1.86s.964.564 1.668.564c.64 0 1.376-.184 2.208-.552l.504 1.488c-.528.192-1.024.356-1.488.492s-1.016.204-1.656.204c-1.248 0-2.196-.352-2.844-1.056s-.972-1.752-.972-3.144v-11.568h-3.984z" fill-rule="nonzero"></path><path d="m295.791 239.514c0-.976.156-1.844.468-2.604s.732-1.404 1.26-1.932 1.14-.928 1.836-1.2 1.428-.408 2.196-.408 1.5.136 2.196.408 1.308.672 1.836 1.2.948 1.172 1.26 1.932.468 1.628.468 2.604c0 .96-.156 1.82-.468 2.58s-.732 1.4-1.26 1.92-1.14.916-1.836 1.188-1.428.408-2.196.408-1.5-.136-2.196-.408-1.308-.668-1.836-1.188-.948-1.16-1.26-1.92-.468-1.62-.468-2.58zm2.04 0c0 .672.088 1.28.264 1.824s.428 1.012.756 1.404.72.696 1.176.912.964.324 1.524.324 1.068-.108 1.524-.324.848-.52 1.176-.912.58-.86.756-1.404.264-1.152.264-1.824-.088-1.284-.264-1.836-.428-1.028-.756-1.428-.72-.708-1.176-.924-.964-.324-1.524-.324-1.068.108-1.524.324-.848.524-1.176.924-.58.876-.756 1.428-.264 1.164-.264 1.836z" fill-rule="nonzero"></path><path d="m312.183 247.266c0 .608.324 1.104.972 1.488s1.596.576 2.844.576c.672 0 1.28-.068 1.824-.204s1.008-.316 1.392-.54.676-.48.876-.768.3-.584.3-.888c0-.56-.22-.936-.66-1.128s-1.108-.288-2.004-.288h-2.28c-.336 0-.652-.012-.948-.036s-.572-.076-.828-.156c-.56.304-.948.62-1.164.948s-.324.66-.324.996zm-1.704.192c0-.464.164-.92.492-1.368s.804-.856 1.428-1.224v-.096c-.32-.176-.6-.416-.84-.72s-.36-.704-.36-1.2c0-.368.12-.748.36-1.14s.584-.74 1.032-1.044v-.096c-.4-.304-.74-.708-1.02-1.212s-.42-1.108-.42-1.812c0-.64.124-1.216.372-1.728s.58-.948.996-1.308.9-.64 1.452-.84 1.14-.3 1.764-.3c.64 0 1.216.096 1.728.288h4.824v1.512h-3.12c.272.288.52.64.744 1.056s.336.88.336 1.392c0 .624-.116 1.184-.348 1.68s-.552.916-.96 1.26-.888.608-1.44.792-1.14.276-1.764.276c-.304 0-.628-.036-.972-.108s-.676-.18-.996-.324c-.608.384-.912.832-.912 1.344 0 .464.212.804.636 1.02s1.02.324 1.788.324h2.616c1.504 0 2.62.208 3.348.624s1.092 1.12 1.092 2.112c0 .544-.152 1.064-.456 1.56s-.736.928-1.296 1.296-1.24.664-2.04.888-1.696.336-2.688.336c-1.712 0-3.036-.28-3.972-.84s-1.404-1.36-1.404-2.4zm5.256-7.152c.752 0 1.388-.248 1.908-.744s.78-1.168.78-2.016c0-.4-.072-.768-.216-1.104s-.336-.624-.576-.864-.524-.428-.852-.564-.676-.204-1.044-.204-.716.068-1.044.204-.612.324-.852.564-.432.528-.576.864-.216.704-.216 1.104c0 .848.264 1.52.792 2.016s1.16.744 1.896.744z" fill-rule="nonzero"></path><path d="m339.591 236.658h10.32v1.488h-10.32z" fill-rule="nonzero"></path><path d="m354.759 241.89c.592.592 1.28 1.068 2.064 1.428s1.608.54 2.472.54c1.12 0 1.984-.236 2.592-.708s.912-1.092.912-1.86c0-.4-.072-.74-.216-1.02s-.344-.52-.6-.72-.556-.38-.9-.54-.716-.328-1.116-.504l-2.256-.984c-.4-.16-.8-.352-1.2-.576s-.764-.496-1.092-.816-.596-.7-.804-1.14-.312-.948-.312-1.524c0-.592.128-1.144.384-1.656s.612-.956 1.068-1.332 1-.668 1.632-.876 1.324-.312 2.076-.312c.992 0 1.904.18 2.736.54s1.536.828 2.112 1.404l-1.056 1.296c-.512-.464-1.076-.828-1.692-1.092s-1.316-.396-2.1-.396c-.96 0-1.72.204-2.28.612s-.84.972-.84 1.692c0 .384.084.708.252.972s.384.496.648.696.564.372.9.516l1.008.432 2.208.96c.48.192.932.412 1.356.66s.792.536 1.104.864.56.712.744 1.152.276.948.276 1.524c0 .624-.128 1.208-.384 1.752s-.624 1.02-1.104 1.428-1.064.728-1.752.96-1.464.348-2.328.348c-1.152 0-2.212-.208-3.18-.624s-1.812-.984-2.532-1.704z" fill-rule="nonzero"></path><path d="m383.943 231.474-.048-2.64h2.64l-.048 2.64-.6 5.4h-1.344zm5.496 0-.048-2.64h2.64l-.048 2.64-.6 5.4h-1.344z" fill-rule="nonzero"></path><path d="m397.839 242.49c.656.48 1.36.864 2.112 1.152s1.656.432 2.712.432 1.84-.176 2.352-.528.768-.784.768-1.296c0-.448-.276-.848-.828-1.2s-1.54-.704-2.964-1.056c-.608-.144-1.18-.32-1.716-.528s-1.004-.452-1.404-.732-.72-.588-.96-.924-.36-.712-.36-1.128c0-.464.104-.9.312-1.308s.516-.76.924-1.056.92-.528 1.536-.696 1.324-.252 2.124-.252c.88 0 1.736.148 2.568.444s1.536.644 2.112 1.044l-.96 1.272c-.512-.368-1.08-.664-1.704-.888s-1.296-.336-2.016-.336c-.544 0-1 .044-1.368.132s-.664.208-.888.36-.384.332-.48.54-.144.424-.144.648c0 .48.328.876.984 1.188s1.512.604 2.568.876c1.584.4 2.756.856 3.516 1.368s1.14 1.216 1.14 2.112c0 .48-.112.928-.336 1.344s-.556.784-.996 1.104-.984.572-1.632.756-1.388.276-2.22.276c-1.152 0-2.212-.18-3.18-.54s-1.812-.788-2.532-1.284z" fill-rule="nonzero"></path><path d="m411.207 239.514c0-.96.168-1.82.504-2.58s.78-1.404 1.332-1.932 1.184-.932 1.896-1.212 1.444-.42 2.196-.42c.832 0 1.576.132 2.232.396s1.212.636 1.668 1.116.804 1.056 1.044 1.728.36 1.416.36 2.232c0 .208-.004.412-.012.612s-.028.372-.06.516h-9.12c.016.624.14 1.184.372 1.68s.544.92.936 1.272.856.624 1.392.816 1.124.288 1.764.288c.688 0 1.316-.096 1.884-.288s1.124-.456 1.668-.792l.696 1.296c-.576.368-1.232.688-1.968.96s-1.576.408-2.52.408c-.864 0-1.676-.14-2.436-.42s-1.424-.68-1.992-1.2-1.016-1.156-1.344-1.908-.492-1.608-.492-2.568zm9.408-.96c0-1.168-.304-2.064-.912-2.688s-1.456-.936-2.544-.936c-.48 0-.94.08-1.38.24s-.836.396-1.188.708-.648.692-.888 1.14-.4.96-.48 1.536z" fill-rule="nonzero"></path><path d="m425.895 242.298c0-.656.156-1.228.468-1.716s.808-.908 1.488-1.26 1.556-.64 2.628-.864 2.36-.4 3.864-.528c-.016-.4-.08-.776-.192-1.128s-.288-.66-.528-.924-.556-.476-.948-.636-.868-.24-1.428-.24c-.768 0-1.504.148-2.208.444s-1.328.612-1.872.948l-.768-1.344c.288-.192.628-.388 1.02-.588s.808-.38 1.248-.54.908-.292 1.404-.396 1-.156 1.512-.156c1.6 0 2.788.436 3.564 1.308s1.164 2.036 1.164 3.492v7.152h-1.608l-.168-1.584h-.072c-.656.512-1.38.952-2.172 1.32s-1.604.552-2.436.552c-.544 0-1.056-.076-1.536-.228s-.9-.368-1.26-.648-.644-.624-.852-1.032-.312-.876-.312-1.404zm1.92-.144c0 .336.072.62.216.852s.332.424.564.576.504.264.816.336.636.108.972.108c.672 0 1.332-.148 1.98-.444s1.308-.724 1.98-1.284v-3.072c-1.248.096-2.292.232-3.132.408s-1.512.388-2.016.636-.86.528-1.068.84-.312.66-.312 1.044z" fill-rule="nonzero"></path><path d="m441.855 233.658h1.632l.168 2.76h.072c.608-.944 1.356-1.688 2.244-2.232s1.876-.816 2.964-.816c.432 0 .832.036 1.2.108s.736.196 1.104.372l-.456 1.704c-.416-.144-.764-.248-1.044-.312s-.652-.096-1.116-.096c-.88 0-1.724.252-2.532.756s-1.564 1.364-2.268 2.58v6.84h-1.968z" fill-rule="nonzero"></path><path d="m454.671 239.514c0-.976.172-1.844.516-2.604s.812-1.404 1.404-1.932 1.284-.928 2.076-1.2 1.628-.408 2.508-.408c.96 0 1.788.168 2.484.504s1.284.736 1.764 1.2l-.984 1.272c-.48-.416-.98-.744-1.5-.984s-1.084-.36-1.692-.36c-.672 0-1.288.108-1.848.324s-1.036.524-1.428.924-.7.876-.924 1.428-.336 1.164-.336 1.836.108 1.28.324 1.824.52 1.012.912 1.404.864.696 1.416.912 1.164.324 1.836.324c.72 0 1.38-.14 1.98-.42s1.148-.628 1.644-1.044l.864 1.272c-.64.576-1.356 1.024-2.148 1.344s-1.62.48-2.484.48c-.912 0-1.756-.136-2.532-.408s-1.452-.668-2.028-1.188-1.024-1.16-1.344-1.92-.48-1.62-.48-2.58z" fill-rule="nonzero"></path><path d="m469.383 228.234h1.968v4.656l-.096 2.76c.624-.656 1.288-1.2 1.992-1.632s1.512-.648 2.424-.648c1.392 0 2.412.396 3.06 1.188s.972 1.964.972 3.516v7.248h-1.968v-6.984c0-1.104-.208-1.924-.624-2.46s-1.104-.804-2.064-.804c-.352 0-.676.044-.972.132s-.588.22-.876.396-.584.396-.888.66-.624.572-.96.924v8.136h-1.968z" fill-rule="nonzero"></path><path d="m500.895 235.266h-3.288v-1.488l3.36-.12.264-3.264h1.632v3.264h5.736v1.608h-5.736v5.544c0 .528.048.988.144 1.38s.256.724.48.996.528.476.912.612.856.204 1.416.204 1.064-.048 1.512-.144.88-.224 1.296-.384l.432 1.44c-.528.192-1.112.356-1.752.492s-1.28.204-1.92.204c-.848 0-1.56-.116-2.136-.348s-1.036-.56-1.38-.984-.592-.932-.744-1.524-.228-1.248-.228-1.968z" fill-rule="nonzero"></path><path d="m512.007 239.514c0-.96.168-1.82.504-2.58s.78-1.404 1.332-1.932 1.184-.932 1.896-1.212 1.444-.42 2.196-.42c.832 0 1.576.132 2.232.396s1.212.636 1.668 1.116.804 1.056 1.044 1.728.36 1.416.36 2.232c0 .208-.004.412-.012.612s-.028.372-.06.516h-9.12c.016.624.14 1.184.372 1.68s.544.92.936 1.272.856.624 1.392.816 1.124.288 1.764.288c.688 0 1.316-.096 1.884-.288s1.124-.456 1.668-.792l.696 1.296c-.576.368-1.232.688-1.968.96s-1.576.408-2.52.408c-.864 0-1.676-.14-2.436-.42s-1.424-.68-1.992-1.2-1.016-1.156-1.344-1.908-.492-1.608-.492-2.568zm9.408-.96c0-1.168-.304-2.064-.912-2.688s-1.456-.936-2.544-.936c-.48 0-.94.08-1.38.24s-.836.396-1.188.708-.648.692-.888 1.14-.4.96-.48 1.536z" fill-rule="nonzero"></path><path d="m528.255 233.658h1.632l.168 2.76h.072c.608-.944 1.356-1.688 2.244-2.232s1.876-.816 2.964-.816c.432 0 .832.036 1.2.108s.736.196 1.104.372l-.456 1.704c-.416-.144-.764-.248-1.044-.312s-.652-.096-1.116-.096c-.88 0-1.724.252-2.532.756s-1.564 1.364-2.268 2.58v6.84h-1.968z" fill-rule="nonzero"></path><path d="m540.591 233.658h1.536l.168 1.536h.072c.288-.544.628-.984 1.02-1.32s.924-.504 1.596-.504c1.184 0 1.92.672 2.208 2.016.352-.608.736-1.096 1.152-1.464s.952-.552 1.608-.552c.816 0 1.444.308 1.884.924s.66 1.508.66 2.676v8.352h-1.896v-8.184c0-1.376-.424-2.064-1.272-2.064-.416 0-.776.148-1.08.444s-.608.748-.912 1.356v8.448h-1.584v-8.184c0-1.376-.44-2.064-1.32-2.064-.416 0-.768.148-1.056.444s-.584.748-.888 1.356v8.448h-1.896z" fill-rule="nonzero"></path><path d="m556.743 231.474-.048-2.64h2.64l-.048 2.64-.6 5.4h-1.344zm5.496 0-.048-2.64h2.64l-.048 2.64-.6 5.4h-1.344z" fill-rule="nonzero"></path></g></g></svg> 