<svg xmlns="http://www.w3.org/2000/svg" viewBox="0 0 219.419 93.25"><g data-name="Layer 2"><g data-name="ART"><path d="M110.63 19.398a38.905 38.905 0 00-.372-.002 28.452 28.452 0 00-19.302 7.354 24.824 24.824 0 00-8.293 18.134c-.175 14.24 12.088 25.977 27.336 26.165 15.188.175 27.793-11.245 27.967-25.488.172-14.24-12.091-25.976-27.337-26.163zm8.07 35.814a12.284 12.284 0 01-6.129 4.667c-.054.728-.086 1.468-.147 2.192a1.204 1.204 0 01-1.198 1.1 1.03 1.03 0 01-.104-.004 1.202 1.202 0 01-1.095-1.3c.04-.469.059-.95.095-1.421-.253.025-.51.064-.756.066h-.078a11.959 11.959 0 01-1.388-.14c.014.296.02.597.047.883a1.202 1.202 0 01-1.08 1.313c-.04.004-.08.006-.118.006a1.202 1.202 0 01-1.195-1.086 22.907 22.907 0 01-.092-1.653 10.075 10.075 0 01-4.444-2.793 7.535 7.535 0 01-1.766-6.233 1.203 1.203 0 012.38.357 5.127 5.127 0 001.203 4.3 7.364 7.364 0 002.664 1.86c.046-1.041.116-2.088.192-3.12.105-1.424.209-2.843.229-4.212.019-1.312.047-2.899.08-4.61-.01-.003-.023-.005-.034-.009-6.09-2.074-6.388-5.309-6.022-7.052.56-2.676 3.258-5.074 6.355-6.503.062-2.644.107-4.455.107-4.455l2.405.059-.084 3.497a12.977 12.977 0 012.33-.426l.033-3.09a1.203 1.203 0 011.202-1.19h.014a1.203 1.203 0 011.189 1.217l-.034 3.172c2.76.52 4.401 2.47 4.515 5.483a1.203 1.203 0 01-1.158 1.246 1.181 1.181 0 01-1.247-1.156 2.962 2.962 0 00-2.136-3.085 959.65 959.65 0 01-.172 11.383c2.377.62 4.617 1.713 5.883 4.346a6.362 6.362 0 01-.447 6.39z" fill="#b5c933"/><path d="M113.213 46.953q-.14 5.152-.461 10.245a9.364 9.364 0 003.909-3.26 4.023 4.023 0 00.32-4.074 5.676 5.676 0 00-3.768-2.91zM108.443 43.537c.554.112 1.133.211 1.73.312.228.038.463.08.695.12.077-3.703.127-7.4.163-11.055a11.243 11.243 0 00-2.365.563c-.07 2.987-.153 6.656-.223 10.06zM108.395 45.97c-.028 1.496-.053 2.891-.07 4.06-.021 1.413-.128 2.881-.236 4.353a89.892 89.892 0 00-.213 3.594 9.45 9.45 0 001.473.13 5.886 5.886 0 00.936-.09q.379-5.757.533-11.617a99.47 99.47 0 00-1.044-.18 72.695 72.695 0 01-1.379-.25zM102.297 38.815c-.403 1.924 1.677 3.223 3.755 4.03.058-2.798.124-5.729.183-8.29-2.015 1.155-3.618 2.739-3.938 4.26z" fill="#b5c933"/><path d="M117.246 2.415q-9.222.005-18.568-.009c-16.965-.042-83.071.741-92.587.854L2.458 87.695c14.176.027 144.104.349 210.341 3.099.146-8.975 1.069-18.286 2.043-28.119 1.964-19.806 3.99-40.276-.702-58.28-32.255-1.996-63.655-1.97-96.894-1.98zm90.379 66.007a1.201 1.201 0 01-1.092 1.094c-8.902.791-9.28 11.405-9.292 11.857a1.203 1.203 0 01-1.203 1.171h-.014L22.535 80.421a1.202 1.202 0 01-1.086-.72c-3.893-8.887-9.268-9.617-9.495-9.644a1.215 1.215 0 01-1.073-1.21l.541-44.194a1.202 1.202 0 01.974-1.165c9.653-1.876 11.556-12.307 11.632-12.75a1.204 1.204 0 011.185-1h.001l170.956.265a1.2 1.2 0 011.198 1.266c-.409 7.775 10.49 10.202 10.6 10.227a1.205 1.205 0 01.895.809c2.158 6.754-1.097 44.513-1.238 46.117z" fill="#b5c933"/><path d="M194.972 12.406l-168.806-.262c-.769 2.908-3.701 11.267-12.35 13.488l-.518 42.275c2.062.617 6.596 2.772 10.032 10.118l171.586 2.1c.472-4.554 3.07-11.646 10.395-12.876.937-11.059 2.748-37.18 1.421-43.583-2.63-.713-11.276-3.631-11.76-11.26zm-54.6 33.185c-.191 15.441-13.614 27.866-30.006 27.866-.133 0-.264-.001-.398-.003-16.573-.204-29.902-13.033-29.71-28.599a27.215 27.215 0 019.075-19.88 30.626 30.626 0 0121.327-7.982c16.57.203 29.9 13.032 29.711 28.597z" fill="#cedd3e"/><path d="M213.988 93.25l-.051-.001C144.66 90.304 2.627 90.099 1.2 90.098a1.202 1.202 0 01-1.2-1.254L3.738 2.019A1.202 1.202 0 014.924.87C5.676.86 80.439-.047 98.682.002q9.36.017 18.58.008c33.564.004 65.265-.016 97.894 2.038a1.202 1.202 0 011.085.883c5.093 18.631 3.01 39.652.995 59.98-1.015 10.232-1.973 19.897-2.046 29.147a1.201 1.201 0 01-1.202 1.192zM2.458 87.695c14.176.027 144.104.348 210.342 3.099.145-8.975 1.067-18.287 2.042-28.12 1.964-19.807 3.993-40.277-.7-58.28-32.25-1.994-63.633-1.973-96.878-1.979q-9.232.006-18.586-.009c-17.015.009-83.073.741-92.587.854z" fill="#3e4147"/><path d="M196.04 82.543h-.015L22.536 80.42a1.202 1.202 0 01-1.087-.72c-3.94-8.995-9.428-9.637-9.483-9.642a1.201 1.201 0 01-1.084-1.211l.54-44.194a1.203 1.203 0 01.973-1.166c9.653-1.875 11.555-12.305 11.631-12.749a1.205 1.205 0 011.186-1h.002l170.955.266a1.202 1.202 0 011.2 1.266c-.41 7.773 10.488 10.203 10.598 10.226a1.205 1.205 0 01.894.81c2.16 6.753-1.096 44.511-1.236 46.116a1.203 1.203 0 01-1.092 1.094c-8.868.788-9.279 11.407-9.292 11.858a1.204 1.204 0 01-1.202 1.169zM23.33 78.024l171.585 2.1c.474-4.554 3.07-11.647 10.396-12.876.937-11.059 2.748-37.179 1.42-43.582-2.63-.713-11.276-3.63-11.76-11.259l-168.806-.263c-.77 2.909-3.699 11.268-12.351 13.488l-.517 42.274c2.063.62 6.598 2.774 10.033 10.118z" fill="#3e4147"/><path d="M110.371 73.456l-.402-.003a30.873 30.873 0 01-21.124-8.5 27.04 27.04 0 01.49-39.978 31.457 31.457 0 0142.448.52 27.04 27.04 0 01-.489 39.978 30.849 30.849 0 01-20.923 7.983zm-.114-54.06a28.45 28.45 0 00-19.3 7.354 24.635 24.635 0 00-.447 36.468 28.481 28.481 0 0019.488 7.83c.124.002.25.003.373.003a28.45 28.45 0 0019.301-7.354 24.635 24.635 0 00.446-36.468 28.481 28.481 0 00-19.488-7.83 45.023 45.023 0 00-.373-.003zm28.911 26.181z" fill="#3e4147"/><path d="M109.285 60.512a11.117 11.117 0 01-8.267-3.47 7.535 7.535 0 01-1.766-6.232 1.203 1.203 0 112.38.355 5.131 5.131 0 001.203 4.302 8.69 8.69 0 006.514 2.64 9.874 9.874 0 007.31-4.168 4.015 4.015 0 00.319-4.075c-1.273-2.648-4.154-3.132-7.204-3.644a24.675 24.675 0 01-3.808-.844c-6.09-2.075-6.388-5.31-6.022-7.053.945-4.516 7.99-8.256 12.74-7.844a5.383 5.383 0 015.292 5.608 1.204 1.204 0 01-1.157 1.247 1.251 1.251 0 01-1.248-1.157 3.035 3.035 0 00-3.09-3.301c-3.947-.336-9.556 2.942-10.183 5.94-.447 2.136 2.17 3.508 4.443 4.283a22.68 22.68 0 003.431.75c3.357.563 7.16 1.202 8.974 4.972a6.367 6.367 0 01-.447 6.392 12.211 12.211 0 01-9.335 5.298h-.079z" fill="#3e4147"/><path d="M106.75 62.573a1.203 1.203 0 01-1.196-1.086 43.898 43.898 0 01.137-7.281c.103-1.404.21-2.855.23-4.212.103-7.145.482-22.476.485-22.63a1.19 1.19 0 011.233-1.172 1.203 1.203 0 011.172 1.233c-.004.153-.383 15.471-.487 22.604-.02 1.427-.13 2.914-.235 4.353a42.2 42.2 0 00-.14 6.873 1.204 1.204 0 01-1.082 1.313 1.18 1.18 0 01-.117.005zM111.225 63.17c-.034 0-.069 0-.104-.003a1.203 1.203 0 01-1.095-1.3c.814-9.564.914-19.595 1.01-29.294q.026-2.596.055-5.17a1.202 1.202 0 011.202-1.187h.015a1.201 1.201 0 011.187 1.217q-.03 2.57-.054 5.164c-.097 9.744-.197 19.82-1.019 29.474a1.202 1.202 0 01-1.197 1.1z" fill="#3e4147"/></g></g></svg>
